<?xml version="1.0" encoding="UTF-8" standalone="no"?>
<svg
   width="451.45599"
   height="512"
   viewBox="0 0 451.45599 512"
   version="1.1"
   id="svg31"
   xmlns="http://www.w3.org/2000/svg"
   xmlns:svg="http://www.w3.org/2000/svg">
  <defs
     id="defs35" />
  <path
     fill="#264de4"
     d="M 41.085001,460.819 6.4086914e-7,0 H 451.456 L 410.327,460.746 225.452,512 Z"
     id="path23" />
  <path
     fill="#2965f1"
     d="M 375.116,431.408 410.264,37.678 H 225.728 v 435.146 z"
     id="path25" />
  <path
     fill="#ebebeb"
     d="m 94.188001,208.59 5.065,56.517 H 225.728 V 208.59 Z m -5.041,-57.875 H 225.728 V 94.197 H 84.009001 Z M 225.728,355.372 l -0.248,0.066 -62.944,-16.996 -4.023,-45.076 h -56.736 l 7.919,88.741 115.772,32.14 0.26,-0.073 z"
     id="path27" />
  <path
     fill="#ffffff"
     d="m 225.533,208.59 v 56.517 h 69.595 l -6.56,73.299 -63.035,17.013 v 58.8 l 115.864,-32.112 0.85,-9.549 13.28,-148.792 1.38,-15.176 L 367.11,94.197 H 225.533 v 56.518 h 79.639 l -5.144,57.875 z"
     id="path29" />
</svg>
