<?xml version="1.0" encoding="UTF-8" standalone="no"?>
<svg
   height="533.33386"
   width="547.00061"
   viewBox="-74.4 -120.90175 293.92166 483.60748"
   version="1.1"
   id="svg605"
   sodipodi:docname="path603.svg"
   inkscape:version="1.2 (dc2aedaf03, 2022-05-15)"
   xmlns:inkscape="http://www.inkscape.org/namespaces/inkscape"
   xmlns:sodipodi="http://sodipodi.sourceforge.net/DTD/sodipodi-0.dtd"
   xmlns="http://www.w3.org/2000/svg"
   xmlns:svg="http://www.w3.org/2000/svg">
  <defs
     id="defs609" />
  <sodipodi:namedview
     id="namedview607"
     pagecolor="#ffffff"
     bordercolor="#666666"
     borderopacity="1.0"
     inkscape:showpageshadow="2"
     inkscape:pageopacity="0.0"
     inkscape:pagecheckerboard="0"
     inkscape:deskcolor="#d1d1d1"
     showgrid="false"
     inkscape:zoom="0.98437402"
     inkscape:cx="273.27011"
     inkscape:cy="103.61915"
     inkscape:window-width="1366"
     inkscape:window-height="705"
     inkscape:window-x="-8"
     inkscape:window-y="-8"
     inkscape:window-maximized="1"
     inkscape:current-layer="svg605" />
  <path
     d="m -7.6534466,267.19427 c 0,1.98857 -2.261556,3.57943 -5.1130844,3.57943 -3.244842,0.29828 -5.506399,-1.29257 -5.506399,-3.57943 0,-1.98857 2.261557,-3.57943 5.113085,-3.57943 2.949856,-0.29829 5.5063984,1.29257 5.5063984,3.57943 z m -30.5801784,-4.47429 c -0.688299,1.98857 1.278272,4.27543 4.228128,4.872 2.556542,0.99429 5.506398,0 6.09637,-1.98857 0.589971,-1.98857 -1.278271,-4.27543 -4.228128,-5.17028 -2.556542,-0.696 -5.40807,0.29828 -6.09637,2.28685 z M 5.2275928,261.0297 c -2.8515278,0.696 -4.81809868,2.58514 -4.52311298,4.872 0.2949856,1.98857 2.85152778,3.28114 5.80138408,2.58514 2.8515278,-0.696 4.8180991,-2.58514 4.5231131,-4.57371 -0.294985,-1.88915 -2.9498564,-3.18172 -5.8013842,-2.88343 z M 69.927773,-119.98059 c -136.38169,0 -240.708273,104.698284 -240.708273,242.60572 0,110.26628 68.63332,204.624 166.666881,237.83314 12.5860538,2.28686 17.010839,-5.568 17.010839,-12.03086 0,-6.16457 -0.294986,-40.16914 -0.294986,-61.04914 0,0 -68.829982,14.91428 -83.284279,-29.62972 0,0 -11.209454,-28.93371 -27.335337,-36.39085 0,0 -22.517228,-15.61029 1.57326,-15.312 0,0 24.483806,1.98857 37.954817,25.65257 21.533952,38.37943 57.62052802,27.34286 71.68151,20.78057 2.261556,-15.90857 8.652912,-26.94514 15.732564,-33.50743 -54.965654,-6.16457 -110.422954,-14.21828 -110.422954,-109.86857 0,-27.34286 7.47297,-41.064003 23.205537,-58.563432 -2.556542,-6.462857 -10.914468,-33.109714 2.556542,-67.512 20.550666,-6.462857 67.846697,26.8457148 67.846697,26.8457148 19.665706,-5.5680002 40.806343,-8.4514287 61.750323,-8.4514287 20.943981,0 42.084616,2.8834285 61.750326,8.4514287 0,0 47.29603,-33.4079998 67.84669,-26.8457148 13.47102,34.501715 5.11309,61.049143 2.55655,67.512 15.73257,17.598857 25.36877,31.32 25.36877,58.563432 0,95.94857 -57.91552,103.60457 -112.88118,109.86857 9.04623,7.85486 16.71585,22.76914 16.71585,46.13486 0,33.50743 -0.29498,74.96914 -0.29498,83.12228 0,6.46286 4.52311,14.31772 17.01084,12.03086 98.32855,-33.01028 164.99531,-127.368 164.99531,-237.63428 0,-137.907436 -110.61963,-242.60572 -247.001317,-242.60572 z M -75.205158,222.94855 c -1.278271,0.99429 -0.983285,3.28115 0.6883,5.17029 1.573257,1.59086 3.834813,2.28686 5.113085,0.99429 1.278271,-0.99429 0.983285,-3.28115 -0.6883,-5.17029 -1.573257,-1.59086 -3.834814,-2.28686 -5.113085,-0.99429 z m -10.619483,-8.05371 c -0.688299,1.29257 0.294986,2.88343 2.261557,3.87771 1.573257,0.99429 3.539828,0.696 4.228127,-0.696 0.6883,-1.29257 -0.294985,-2.88342 -2.261556,-3.87771 -1.966571,-0.59657 -3.539828,-0.29829 -4.228128,0.696 z m 31.858449,35.39657 c -1.573257,1.29257 -0.983285,4.27543 1.278271,6.16457 2.261557,2.28686 5.113085,2.58515 6.391356,0.99429 1.278271,-1.29257 0.6883,-4.27543 -1.278271,-6.16457 -2.163228,-2.28686 -5.113085,-2.58515 -6.391356,-0.99429 z m -11.209454,-14.616 c -1.573257,0.99429 -1.573257,3.57943 0,5.86629 1.573257,2.28685 4.228127,3.28114 5.506399,2.28685 1.573256,-1.29257 1.573256,-3.87771 0,-6.16457 -1.3766,-2.28685 -3.933142,-3.28114 -5.506399,-1.98857 z"
     id="path603"
     inkscape:export-filename="path603.svg"
     inkscape:export-xdpi="96"
     inkscape:export-ydpi="96"
     style="stroke-width:0.98877" />
</svg>
