<?xml version="1.0" encoding="UTF-8" standalone="no"?>
<!-- Created with Inkscape (http://www.inkscape.org/) -->

<svg
   version="1.1"
   id="svg64"
   width="394.69229"
   height="449.20959"
   viewBox="0 0 394.69229 449.20959"
   xmlns="http://www.w3.org/2000/svg"
   xmlns:svg="http://www.w3.org/2000/svg"
   xmlns:rdf="http://www.w3.org/1999/02/22-rdf-syntax-ns#"
   xmlns:cc="http://creativecommons.org/ns#"
   xmlns:dc="http://purl.org/dc/elements/1.1/">
  <metadata
     id="metadata70">
    <rdf:RDF>
      <cc:Work
         rdf:about="">
        <dc:format>image/svg+xml</dc:format>
        <dc:type
           rdf:resource="http://purl.org/dc/dcmitype/StillImage" />
      </cc:Work>
    </rdf:RDF>
  </metadata>
  <defs
     id="defs68" />
  <path
     style="fill:#ffffff;stroke-width:1.33333"
     d="M 3.7004448e-4,-0.00129825 0.06287004,4.9987018 C 0.09731004,7.7487018 8.06449,98.799362 17.76794,207.33269 l 17.64258,197.33398 79.29492,22.20117 c 43.61211,12.21062 80.19493,22.26265 81.29493,22.33985 1.1,0.0771 38.16591,-9.87392 82.36914,-22.11329 70.87044,-19.6232 80.43786,-22.57875 80.94531,-25.00781 0.707,-3.38418 35.41255,-394.8990482 35.37695,-399.0878882 l -0.0254,-3.00000005 H 197.3324 Z"
     id="path118" />
  <path
     id="path88"
     d="m 115.33332,428.19599 -80,-22.36163 -1.04545,-5.91717 C 33.35856,394.65741 -1.33335,7.1828918 -1.33335,2.0632718 -1.33335,0.21036175 18.9223,1.7529297e-6 197.33332,1.7529297e-6 385.65663,1.7529297e-6 395.99919,0.12147175 395.98465,2.3333318 395.92185,11.886682 360.01301,404.49191 359.13056,405.27335 c -1.11511,0.98746 -155.95653,44.12552 -161.13057,44.89017 -1.46667,0.21676 -38.66667,-9.66863 -82.66667,-21.96753 z m 132.44436,-79.01302 c 26.88893,-7.41602 49.27699,-13.86602 49.75121,-14.33333 0.47423,-0.46731 3.62071,-32.34964 6.99216,-70.84964 3.37146,-38.5 6.47022,-72.55 6.88612,-75.66667 l 0.75622,-5.66666 H 254.08168 195.99999 V 207.33333 232 h 31.35873 31.35873 l -0.6238,3 c -0.34309,1.65 -1.67673,15.82935 -2.96364,31.50967 -1.36361,16.6149 -2.98028,29.1501 -3.87486,30.04469 -0.84427,0.84427 -13.62206,4.75671 -28.3951,8.69431 l -26.86006,7.15929 v 25.12935 c 0,17.15185 0.45852,25.12936 1.44436,25.12936 0.7944,0 23.4444,-6.06767 50.33333,-13.4837 z m 63.62125,-197.5163 c -0.88136,-6.53338 -8.73228,-94.162828 -8.73228,-97.466958 0,-2.00692 -4.61566,-2.19971 -52.66666,-2.19971 h -52.66667 v 25.79372 25.793728 l 23.66667,0.91218 c 13.01666,0.50169 26.71548,1.26522 30.4418,1.69674 l 6.77512,0.78459 1.64474,20.17619 c 0.9046,11.0969 1.98248,22.42618 2.39528,25.17618 l 0.75055,5 h 24.57795 24.57796 z"
     style="fill:#eaebec;stroke-width:1.33333" />
  <path
     id="path80"
     d="M 114.70525,426.86777 35.41052,404.66667 17.76787,207.33333 C 8.06441,98.800002 0.09704004,7.7500018 0.06260004,5.0000018 L 4.4483861e-8,1.7529297e-6 H 197.33332 394.66665 L 394.69225,3.0000018 c 0.0356,4.18884 -34.67072,395.7037882 -35.37772,399.0879682 -0.50745,2.42906 -10.07454,5.38483 -80.94498,25.00803 -44.20323,12.23937 -81.26951,22.19028 -82.36951,22.11315 -1.1,-0.0772 -37.68263,-10.13076 -81.29473,-22.34138 z m 133.13264,-76.74193 c 27.41084,-7.62076 50.2269,-14.48533 50.70234,-15.2546 0.47542,-0.76927 3.75001,-34.28 7.27684,-74.46829 3.52682,-40.18828 6.70121,-74.11962 7.05418,-75.40295 0.60635,-2.20456 -4.05766,-2.33333 -84.51377,-2.33333 h -85.15553 l 3.62565,-38.33334 c 1.99411,-21.08333 3.67367,-38.38792 3.73235,-38.45464 0.0587,-0.0667 12.5567,-0.46537 27.77337,-0.8859 24.95099,-0.68958 76.40477,1.30088 78.12613,3.02224 0.64308,0.64308 4.87387,42.15037 4.87387,47.81645 0,2.79381 0.37699,2.83519 25.83621,2.83519 h 25.83623 L 312.39692,153 c -0.33487,-3.11667 -2.52341,-27.26667 -4.86345,-53.666668 l -4.25462,-48 -99.63942,-0.34182 c -79.26871,-0.27194 -99.64168,6.5e-4 -99.65038,1.33333 -0.007,0.92135 -0.58701,6.77516 -1.29109,13.00849 -1.70375,15.08355 -14.697967,160.822508 -14.697967,164.847588 v 3.15241 h 84.783857 84.78387 l -0.75581,5 c -0.4157,2.75 -1.73364,16.7 -2.92876,31 -1.19512,14.3 -2.55774,26.3694 -3.02806,26.82091 -1.24218,1.19249 -51.11936,14.51707 -54.22958,14.48731 -1.44404,-0.0138 -14.32552,-3.22779 -28.62552,-7.14216 l -26,-7.11703 -0.95343,-11.19119 c -0.52439,-6.15514 -1.32215,-14.94117 -1.7728,-19.5245 l -0.81936,-8.33334 H 113.2272 87.999993 l 0.0559,5 c 0.1044,9.35062 6.16783,72.33478 7.04834,73.21528 1.01833,1.01835 97.912237,28.25511 100.895817,28.36171 1.1,0.0393 24.42706,-6.16372 51.83791,-13.78448 z"
     style="fill:#f0be25;stroke-width:1.33333" />
  <path
     id="path78"
     d="M 114.70525,426.86777 35.41052,404.66667 17.76787,207.33333 C 8.06441,98.800002 0.09704004,7.7500018 0.06260004,5.0000018 L 4.4483861e-8,1.7529297e-6 H 197.33332 394.66665 L 394.69225,3.0000018 c 0.0356,4.18884 -34.67072,395.7037882 -35.37772,399.0879682 -0.50745,2.42906 -10.07454,5.38483 -80.94498,25.00803 -44.20323,12.23937 -81.26951,22.19028 -82.36951,22.11315 -1.1,-0.0772 -37.68263,-10.13076 -81.29473,-22.34138 z m 147.87439,-29.70081 c 34.88119,-9.62484 64.07555,-18.17484 64.87636,-19 1.24625,-1.28417 31.37211,-331.454208 31.25089,-342.500288 l -0.0402,-3.66667 h -80.66666 -80.66667 v 9.33333 9.33334 h -46.66671 c -36.43861,0 -46.66906,0.36529 -46.6776,1.66666 -0.007,0.91667 -0.58701,6.76667 -1.29109,13 -1.70375,15.08355 -14.697967,160.822508 -14.697967,164.847588 v 3.15241 h 54.666657 54.66667 V 272 c 0,30.05784 -0.37107,38.66108 -1.66667,38.64155 -0.91666,-0.0139 -13.36666,-3.22779 -27.66666,-7.14216 l -26,-7.11703 -0.95343,-11.19119 c -0.52439,-6.15514 -1.32215,-14.94117 -1.7728,-19.5245 l -0.81936,-8.33334 H 113.2272 87.999993 l 0.0559,5 c 0.15972,14.30148 6.3465,72.67926 7.79746,73.576 0.8819,0.54504 24.075687,7.2095 51.541737,14.80988 l 49.93823,13.81888 v 25.06428 c 0,13.78536 0.41084,25.0643 0.91299,25.0643 0.50213,0 29.45213,-7.87487 64.33333,-17.49971 z M 146.68711,144.69164 c 1.91684,-20.88627 3.7464,-38.21141 4.06569,-38.50032 0.31928,-0.28889 10.93052,-0.81163 23.58052,-1.16161 l 23,-0.63635 v 39.13665 39.13666 h -27.06569 -27.06568 z"
     style="fill:#e4a126;stroke-width:1.33333" />
</svg>
